Oxygen-Heavy.ufo
<glyph name="quotesingle" format="1">
  <advance width="446"/>
  <unicode hex="0027"/>
  <outline>
    <contour>
      <point x="137" y="913" type="line"/>
      <point x="301" y="913" type="line"/>
      <point x="331" y="1457" type="line"/>
      <point x="98" y="1457" type="line"/>
    </contour>
  </outline>
</glyph>
<glyph name="asterisk" format="1">
  <advance width="1103"/>
  <unicode hex="002A"/>
  <outline>
    <contour>
      <point x="381" y="556" type="line"/>
      <point x="549" y="866" type="line"/>
      <point x="726" y="555" type="line"/>
      <point x="943" y="676" type="line"/>
      <point x="701" y="973" type="line"/>
      <point x="1037" y="1042" type="line"/>
      <point x="972" y="1262" type="line"/>
      <point x="638" y="1140" type="line"/>
      <point x="672" y="1498" type="line"/>
      <point x="430" y="1498" type="line"/>
      <point x="464" y="1140" type="line"/>
      <point x="134" y="1267" type="line"/>
      <point x="66" y="1048" type="line"/>
      <point x="401" y="973" type="line"/>
      <point x="160" y="676" type="line"/>
    </contour>
  </outline>
</glyph>
<glyph name="three" format="1">
  <advance width="1069"/>
  <unicode hex="0033"/>
  <outline>
    <contour>
      <point x="481" y="-20" type="curve" smooth="yes"/>
      <point x="772" y="-20"/>
      <point x="1012" y="117"/>
      <point x="1012" y="394" type="curve" smooth="yes"/>
      <point x="1012" y="564"/>
      <point x="921" y="726"/>
      <point x="737" y="761" type="curve"/>
      <point x="892" y="813"/>
      <point x="969" y="930"/>
      <point x="969" y="1078" type="curve" smooth="yes"/>
      <point x="969" y="1305"/>
      <point x="777" y="1478"/>
      <point x="480" y="1478" type="curve" smooth="yes"/>
      <point x="299" y="1478"/>
      <point x="167" y="1436"/>
      <point x="48" y="1367" type="curve"/>
      <point x="125" y="1162" type="line"/>
      <point x="213" y="1214"/>
      <point x="329" y="1252"/>
      <point x="460" y="1252" type="curve" smooth="yes"/>
      <point x="618" y="1252"/>
      <point x="694" y="1144"/>
      <point x="694" y="1058" type="curve" smooth="yes"/>
      <point x="694" y="899"/>
      <point x="541" y="864"/>
      <point x="327" y="864" type="curve" smooth="yes"/>
      <point x="269" y="864" type="line"/>
      <point x="269" y="644" type="line"/>
      <point x="327" y="644" type="line"/>
      <point x="565" y="640"/>
      <point x="715" y="610"/>
      <point x="715" y="411" type="curve" smooth="yes"/>
      <point x="715" y="294"/>
      <point x="622" y="206"/>
      <point x="482" y="206" type="curve" smooth="yes"/>
      <point x="350" y="206"/>
      <point x="199" y="248"/>
      <point x="126" y="309" type="curve"/>
      <point x="49" y="106" type="line"/>
      <point x="148" y="22"/>
      <point x="316" y="-20"/>
    </contour>
  </outline>
</glyph>
<glyph name="seven" format="1">
  <advance width="1031"/>
  <unicode hex="0037"/>
  <outline>
    <contour>
      <point x="229" y="0" type="line"/>
      <point x="525" y="0" type="line"/>
      <point x="976" y="1283" type="line"/>
      <point x="976" y="1446" type="line"/>
      <point x="66" y="1446" type="line"/>
      <point x="66" y="1230" type="line"/>
      <point x="647" y="1230" type="line"/>
    </contour>
  </outline>
</glyph>
<glyph name="nine" format="1">
  <advance width="1232"/>
  <unicode hex="0039"/>
  <outline>
    <contour>
      <point x="240" y="0" type="line"/>
      <point x="592" y="0" type="line"/>
      <point x="1011" y="565" type="line"/>
      <point x="1093" y="678"/>
      <point x="1190" y="814"/>
      <point x="1190" y="998" type="curve" smooth="yes"/>
      <point x="1190" y="1298"/>
      <point x="949" y="1478"/>
      <point x="624" y="1478" type="curve" smooth="yes"/>
      <point x="309" y="1478"/>
      <point x="80" y="1304"/>
      <point x="80" y="1009" type="curve" smooth="yes"/>
      <point x="80" y="734"/>
      <point x="275" y="540"/>
      <point x="572" y="540" type="curve" smooth="yes"/>
      <point x="608" y="540"/>
      <point x="622" y="544"/>
      <point x="656" y="551" type="curve"/>
    </contour>
    <contour>
      <point x="635" y="736" type="curve" smooth="yes"/>
      <point x="450" y="736"/>
      <point x="368" y="844"/>
      <point x="368" y="1006" type="curve" smooth="yes"/>
      <point x="368" y="1163"/>
      <point x="468" y="1263"/>
      <point x="639" y="1263" type="curve" smooth="yes"/>
      <point x="804" y="1263"/>
      <point x="894" y="1167"/>
      <point x="894" y="1011" type="curve" smooth="yes"/>
      <point x="894" y="850"/>
      <point x="821" y="736"/>
    </contour>
  </outline>
</glyph>
<glyph name="E" format="1">
  <advance width="1155"/>
  <unicode hex="0045"/>
  <outline>
    <contour>
      <point x="152" y="0" type="line"/>
      <point x="1054" y="0" type="line"/>
      <point x="1064" y="237" type="line"/>
      <point x="456" y="237" type="line"/>
      <point x="456" y="646" type="line"/>
      <point x="1012" y="646" type="line"/>
      <point x="1012" y="882" type="line"/>
      <point x="456" y="882" type="line"/>
      <point x="456" y="1224" type="line"/>
      <point x="1042" y="1224" type="line"/>
      <point x="1054" y="1460" type="line"/>
      <point x="152" y="1460" type="line"/>
    </contour>
    <contour>
      <point x="578" y="1444" type="move"/>
    </contour>
    <contour>
      <point x="578" y="0" type="move"/>
    </contour>
    <contour>
      <point x="1039" y="10" type="move"/>
    </contour>
    <contour>
      <point x="578" y="1444" type="move"/>
    </contour>
    <contour>
      <point x="578" y="0" type="move"/>
    </contour>
    <contour>
      <point x="1039" y="10" type="move"/>
    </contour>
    <contour>
      <point x="578" y="1460" type="move" name="top"/>
    </contour>
    <contour>
      <point x="578" y="0" type="move" name="bottom"/>
    </contour>
    <contour>
      <point x="1039" y="10" type="move" name="ogonek"/>
    </contour>
  </outline>
</glyph>
<glyph name="F" format="1">
  <advance width="1124"/>
  <unicode hex="0046"/>
  <outline>
    <contour>
      <point x="152" y="0" type="line"/>
      <point x="454" y="0" type="line"/>
      <point x="454" y="608" type="line"/>
      <point x="995" y="608" type="line"/>
      <point x="995" y="843" type="line"/>
      <point x="453" y="843" type="line"/>
      <point x="453" y="1224" type="line"/>
      <point x="1024" y="1224" type="line"/>
      <point x="1035" y="1460" type="line"/>
      <point x="152" y="1460" type="line"/>
    </contour>
  </outline>
</glyph>
<glyph name="G" format="1">
  <advance width="1468"/>
  <unicode hex="0047"/>
  <outline>
    <contour>
      <point x="810" y="-20" type="curve" smooth="yes"/>
      <point x="1007" y="-20"/>
      <point x="1163" y="22"/>
      <point x="1333" y="89" type="curve"/>
      <point x="1333" y="806" type="line"/>
      <point x="755" y="806" type="line"/>
      <point x="755" y="573" type="line"/>
      <point x="1048" y="573" type="line"/>
      <point x="1048" y="260" type="line"/>
      <point x="981" y="235"/>
      <point x="903" y="222"/>
      <point x="815" y="222" type="curve" smooth="yes"/>
      <point x="543" y="222"/>
      <point x="407" y="424"/>
      <point x="407" y="729" type="curve" smooth="yes"/>
      <point x="408" y="1051"/>
      <point x="584" y="1238"/>
      <point x="857" y="1238" type="curve" smooth="yes"/>
      <point x="993" y="1238"/>
      <point x="1114" y="1198"/>
      <point x="1218" y="1143" type="curve"/>
      <point x="1313" y="1365" type="line"/>
      <point x="1180" y="1445"/>
      <point x="1026" y="1480"/>
      <point x="851" y="1480" type="curve" smooth="yes"/>
      <point x="375" y="1480"/>
      <point x="96" y="1179"/>
      <point x="96" y="733" type="curve" smooth="yes"/>
      <point x="96" y="260"/>
      <point x="364" y="-20"/>
    </contour>
    <contour>
      <point x="734" y="1444" type="move"/>
    </contour>
    <contour>
      <point x="734" y="0" type="move"/>
    </contour>
    <contour>
      <point x="734" y="1444" type="move"/>
    </contour>
    <contour>
      <point x="734" y="0" type="move"/>
    </contour>
    <contour>
      <point x="734" y="1460" type="move" name="top"/>
    </contour>
    <contour>
      <point x="734" y="0" type="move" name="bottom"/>
    </contour>
  </outline>
</glyph>
<glyph name="O" format="1">
  <advance width="1626"/>
  <unicode hex="004F"/>
  <outline>
    <contour>
      <point x="814" y="223" type="curve" smooth="yes"/>
      <point x="544" y="223"/>
      <point x="412" y="411"/>
      <point x="412" y="727" type="curve" smooth="yes"/>
      <point x="412" y="1043"/>
      <point x="544" y="1239"/>
      <point x="815" y="1239" type="curve" smooth="yes"/>
      <point x="1085" y="1239"/>
      <point x="1216" y="1044"/>
      <point x="1216" y="727" type="curve" smooth="yes"/>
      <point x="1216" y="410"/>
      <point x="1084" y="223"/>
    </contour>
    <contour>
      <point x="813" y="-20" type="curve" smooth="yes"/>
      <point x="1248" y="-20"/>
      <point x="1531" y="253"/>
      <point x="1531" y="730" type="curve" smooth="yes"/>
      <point x="1531" y="1209"/>
      <point x="1250" y="1480"/>
      <point x="814" y="1480" type="curve" smooth="yes"/>
      <point x="379" y="1480"/>
      <point x="95" y="1212"/>
      <point x="95" y="731" type="curve" smooth="yes"/>
      <point x="95" y="253"/>
      <point x="378" y="-20"/>
    </contour>
    <contour>
      <point x="813" y="1444" type="move"/>
    </contour>
    <contour>
      <point x="813" y="1444" type="move"/>
    </contour>
    <contour>
      <point x="813" y="1460" type="move" name="top"/>
    </contour>
  </outline>
</glyph>
<glyph name="R" format="1">
  <advance width="1412"/>
  <unicode hex="0052"/>
  <outline>
    <contour>
      <point x="152" y="0" type="line"/>
      <point x="451" y="0" type="line"/>
      <point x="451" y="609" type="line"/>
      <point x="665" y="609" type="line" smooth="yes"/>
      <point x="708" y="609"/>
      <point x="745" y="608"/>
      <point x="758" y="606" type="curve"/>
      <point x="758" y="606"/>
      <point x="845" y="434"/>
      <point x="882" y="356" type="curve"/>
      <point x="1042" y="0" type="line"/>
      <point x="1370" y="0" type="line"/>
      <point x="1160" y="429" type="line" smooth="yes"/>
      <point x="1114" y="521"/>
      <point x="1082" y="591"/>
      <point x="1019" y="662" type="curve"/>
      <point x="1185" y="724"/>
      <point x="1278" y="846"/>
      <point x="1278" y="1048" type="curve" smooth="yes"/>
      <point x="1278" y="1384"/>
      <point x="1061" y="1460"/>
      <point x="718" y="1460" type="curve" smooth="yes"/>
      <point x="152" y="1460" type="line"/>
    </contour>
    <contour>
      <point x="726" y="820" type="curve" smooth="yes"/>
      <point x="451" y="820" type="line"/>
      <point x="451" y="1243" type="line"/>
      <point x="733" y="1243" type="line" smooth="yes"/>
      <point x="908" y="1243"/>
      <point x="1002" y="1183"/>
      <point x="1002" y="1043" type="curve" smooth="yes"/>
      <point x="1002" y="885"/>
      <point x="918" y="820"/>
    </contour>
    <contour>
      <point x="699" y="1444" type="move"/>
    </contour>
    <contour>
      <point x="699" y="0" type="move"/>
    </contour>
    <contour>
      <point x="706" y="1444" type="move"/>
    </contour>
    <contour>
      <point x="706" y="0" type="move"/>
    </contour>
    <contour>
      <point x="706" y="1460" type="move" name="top"/>
    </contour>
    <contour>
      <point x="706" y="0" type="move" name="bottom"/>
    </contour>
  </outline>
</glyph>
<glyph name="T" format="1">
  <advance width="1170"/>
  <unicode hex="0054"/>
  <outline>
    <contour>
      <point x="434" y="0" type="line"/>
      <point x="738" y="0" type="line"/>
      <point x="738" y="1222" type="line"/>
      <point x="1154" y="1222" type="line"/>
      <point x="1154" y="1460" type="line"/>
      <point x="16" y="1460" type="line"/>
      <point x="16" y="1222" type="line"/>
      <point x="434" y="1222" type="line"/>
    </contour>
    <contour>
      <point x="586" y="1444" type="move"/>
    </contour>
    <contour>
      <point x="586" y="0" type="move"/>
    </contour>
    <contour>
      <point x="586" y="722" type="move"/>
    </contour>
    <contour>
      <point x="586" y="1444" type="move"/>
    </contour>
    <contour>
      <point x="586" y="0" type="move"/>
    </contour>
    <contour>
      <point x="586" y="722" type="move"/>
    </contour>
    <contour>
      <point x="586" y="1460" type="move" name="top"/>
    </contour>
    <contour>
      <point x="586" y="0" type="move" name="bottom"/>
    </contour>
    <contour>
      <point x="586" y="730" type="move" name="center"/>
    </contour>
  </outline>
</glyph>
<glyph name="bracketright" format="1">
  <advance width="642"/>
  <unicode hex="005D"/>
  <outline>
    <contour>
      <point x="42" y="-257" type="line"/>
      <point x="510" y="-257" type="line"/>
      <point x="510" y="1515" type="line"/>
      <point x="42" y="1515" type="line"/>
      <point x="42" y="1319" type="line"/>
      <point x="230" y="1319" type="line"/>
      <point x="230" y="-60" type="line"/>
      <point x="42" y="-60" type="line"/>
    </contour>
  </outline>
</glyph>
<glyph name="asciicircum" format="1">
  <advance width="1153"/>
  <unicode hex="005E"/>
  <outline>
    <contour>
      <point x="25" y="535" type="line"/>
      <point x="255" y="535" type="line"/>
      <point x="564" y="1177" type="line"/>
      <point x="900" y="535" type="line"/>
      <point x="1131" y="535" type="line"/>
      <point x="631" y="1456" type="line"/>
      <point x="493" y="1456" type="line"/>
    </contour>
  </outline>
</glyph>
<glyph name="d" format="1">
  <advance width="1275"/>
  <unicode hex="0064"/>
  <outline>
    <contour>
      <point x="537" y="-20" type="curve" smooth="yes"/>
      <point x="765" y="-20"/>
      <point x="821" y="85"/>
      <point x="857" y="147" type="curve"/>
      <point x="889" y="0" type="line"/>
      <point x="1144" y="0" type="line"/>
      <point x="1144" y="1517" type="line"/>
      <point x="850" y="1498" type="line"/>
      <point x="850" y="1185" type="line" smooth="yes"/>
      <point x="850" y="1117"/>
      <point x="854" y="1043"/>
      <point x="862" y="965" type="curve"/>
      <point x="832" y="1018"/>
      <point x="761" y="1128"/>
      <point x="537" y="1128" type="curve" smooth="yes"/>
      <point x="245" y="1128"/>
      <point x="77" y="898"/>
      <point x="77" y="561" type="curve" smooth="yes"/>
      <point x="77" y="216"/>
      <point x="248" y="-20"/>
    </contour>
    <contour>
      <point x="615" y="197" type="curve" smooth="yes"/>
      <point x="478" y="197"/>
      <point x="367" y="302"/>
      <point x="367" y="554" type="curve" smooth="yes"/>
      <point x="367" y="813"/>
      <point x="480" y="909"/>
      <point x="612" y="909" type="curve" smooth="yes"/>
      <point x="767" y="909"/>
      <point x="863" y="813"/>
      <point x="863" y="539" type="curve"/>
      <point x="860" y="286"/>
      <point x="760" y="197"/>
    </contour>
    <contour>
      <point x="638" y="549" type="move"/>
    </contour>
    <contour>
      <point x="638" y="549" type="move"/>
    </contour>
    <contour>
      <point x="638" y="549" type="move" name="center"/>
    </contour>
  </outline>
</glyph>
<glyph name="f" format="1">
  <advance width="784"/>
  <unicode hex="0066"/>
  <outline>
    <contour>
      <point x="200" y="0" type="line"/>
      <point x="494" y="0" type="line"/>
      <point x="494" y="909" type="line"/>
      <point x="749" y="909" type="line"/>
      <point x="749" y="1100" type="line"/>
      <point x="494" y="1100" type="line"/>
      <point x="494" y="1182" type="line" smooth="yes"/>
      <point x="494" y="1285"/>
      <point x="536" y="1327"/>
      <point x="640" y="1327" type="curve" smooth="yes"/>
      <point x="678" y="1327"/>
      <point x="723" y="1322"/>
      <point x="767" y="1316" type="curve"/>
      <point x="794" y="1533" type="line"/>
      <point x="725" y="1545"/>
      <point x="649" y="1553"/>
      <point x="577" y="1553" type="curve" smooth="yes"/>
      <point x="286" y="1553"/>
      <point x="200" y="1416"/>
      <point x="200" y="1164" type="curve" smooth="yes"/>
      <point x="200" y="1100" type="line"/>
      <point x="45" y="1078" type="line"/>
      <point x="27" y="909" type="line"/>
      <point x="200" y="909" type="line"/>
    </contour>
  </outline>
</glyph>
<glyph name="g" format="1">
  <advance width="1294"/>
  <unicode hex="0067"/>
  <outline>
    <contour>
      <point x="366" y="-488" type="line"/>
      <point x="506" y="-488" type="line" smooth="yes"/>
      <point x="1024" y="-488"/>
      <point x="1172" y="-317"/>
      <point x="1172" y="77" type="curve" smooth="yes"/>
      <point x="1172" y="1100" type="line"/>
      <point x="914" y="1100" type="line"/>
      <point x="890" y="969" type="line"/>
      <point x="830" y="1062"/>
      <point x="730" y="1128"/>
      <point x="562" y="1128" type="curve" smooth="yes"/>
      <point x="325" y="1128"/>
      <point x="77" y="948"/>
      <point x="77" y="567" type="curve" smooth="yes"/>
      <point x="77" y="208"/>
      <point x="306" y="0"/>
      <point x="584" y="0" type="curve" smooth="yes"/>
      <point x="760" y="0"/>
      <point x="823" y="67"/>
      <point x="878" y="143" type="curve"/>
      <point x="883" y="91"/>
      <point x="886" y="37"/>
      <point x="886" y="-18" type="curve" smooth="yes"/>
      <point x="886" y="-223"/>
      <point x="749" y="-256"/>
      <point x="461" y="-256" type="curve" smooth="yes"/>
      <point x="351" y="-256" type="line"/>
    </contour>
    <contour>
      <point x="631" y="196" type="curve" smooth="yes"/>
      <point x="467" y="196"/>
      <point x="369" y="354"/>
      <point x="369" y="565" type="curve" smooth="yes"/>
      <point x="369" y="788"/>
      <point x="464" y="908"/>
      <point x="649" y="908" type="curve"/>
      <point x="800.477" y="906.045"/>
      <point x="886.055" y="797.124"/>
      <point x="889.867" y="580.302" type="curve" smooth="yes"/>
      <point x="890.01" y="572.164"/>
      <point x="890.03" y="563.791"/>
      <point x="889.961" y="555.542" type="curve" smooth="yes"/>
      <point x="888.178" y="341.693"/>
      <point x="825.151" y="196"/>
    </contour>
    <contour>
      <point x="647" y="1098" type="move"/>
    </contour>
    <contour>
      <point x="647" y="1098" type="move"/>
    </contour>
    <contour>
      <point x="647" y="1098" type="move" name="top"/>
    </contour>
  </outline>
</glyph>
<glyph name="i" format="1">
  <advance width="555"/>
  <unicode hex="0069"/>
  <outline>
    <contour>
      <point x="132" y="0" type="line"/>
      <point x="426" y="0" type="line"/>
      <point x="426" y="1100" type="line"/>
      <point x="132" y="1100" type="line"/>
    </contour>
    <contour>
      <point x="132" y="1246" type="line"/>
      <point x="427" y="1246" type="line"/>
      <point x="427" y="1478" type="line"/>
      <point x="132" y="1478" type="line"/>
    </contour>
  </outline>
</glyph>
<glyph name="k" format="1">
  <advance width="1217"/>
  <unicode hex="006B"/>
  <outline>
    <contour>
      <point x="129" y="0" type="line"/>
      <point x="423" y="0" type="line"/>
      <point x="423" y="405" type="line"/>
      <point x="527" y="485" type="line"/>
      <point x="876" y="0" type="line"/>
      <point x="1230" y="0" type="line"/>
      <point x="751" y="630" type="line"/>
      <point x="1202" y="1100" type="line"/>
      <point x="856" y="1100" type="line"/>
      <point x="726" y="962"/>
      <point x="579" y="821"/>
      <point x="458" y="674" type="curve"/>
      <point x="415" y="633" type="line"/>
      <point x="423" y="883" type="line"/>
      <point x="423" y="1517" type="line"/>
      <point x="129" y="1498" type="line"/>
    </contour>
    <contour>
      <point x="599" y="0" type="move"/>
    </contour>
    <contour>
      <point x="602" y="0" type="move"/>
    </contour>
    <contour>
      <point x="602" y="0" type="move" name="bottom"/>
    </contour>
  </outline>
</glyph>
<glyph name="l" format="1">
  <advance width="733"/>
  <unicode hex="006C"/>
  <outline>
    <contour>
      <point x="545" y="-13" type="curve" smooth="yes"/>
      <point x="643" y="-13"/>
      <point x="734" y="13"/>
      <point x="734" y="13" type="curve"/>
      <point x="727" y="218" type="line"/>
      <point x="678" y="211"/>
      <point x="636" y="207"/>
      <point x="600" y="207" type="curve" smooth="yes"/>
      <point x="470" y="207"/>
      <point x="427" y="262"/>
      <point x="427" y="440" type="curve" smooth="yes"/>
      <point x="427" y="1517" type="line"/>
      <point x="133" y="1498" type="line"/>
      <point x="133" y="456" type="line" smooth="yes"/>
      <point x="133" y="145"/>
      <point x="211" y="-13"/>
    </contour>
    <contour>
      <point x="369" y="1098" type="move"/>
    </contour>
    <contour>
      <point x="369" y="0" type="move"/>
    </contour>
    <contour>
      <point x="713" y="1098" type="move"/>
    </contour>
    <contour>
      <point x="367" y="1098" type="move"/>
    </contour>
    <contour>
      <point x="367" y="0" type="move"/>
    </contour>
    <contour>
      <point x="713" y="1098" type="move"/>
    </contour>
    <contour>
      <point x="367" y="1098" type="move" name="top"/>
    </contour>
    <contour>
      <point x="367" y="0" type="move" name="bottom"/>
    </contour>
    <contour>
      <point x="713" y="1098" type="move" name="topright"/>
    </contour>
  </outline>
</glyph>
<glyph name="m" format="1">
  <advance width="1935"/>
  <unicode hex="006D"/>
  <outline>
    <contour>
      <point x="129" y="0" type="line"/>
      <point x="423" y="0" type="line"/>
      <point x="423" y="515" type="line" smooth="yes"/>
      <point x="423" y="622"/>
      <point x="432" y="711"/>
      <point x="450" y="782" type="curve"/>
      <point x="490" y="850"/>
      <point x="557" y="910"/>
      <point x="659" y="910" type="curve" smooth="yes"/>
      <point x="790" y="910"/>
      <point x="826" y="817"/>
      <point x="826" y="652" type="curve" smooth="yes"/>
      <point x="826" y="0" type="line"/>
      <point x="1120" y="0" type="line"/>
      <point x="1120" y="658" type="line"/>
      <point x="1128.03" y="711.895"/>
      <point x="1143.65" y="761.552"/>
      <point x="1168.1" y="802.338" type="curve" smooth="yes"/>
      <point x="1207.62" y="868.257"/>
      <point x="1270.19" y="911"/>
      <point x="1361" y="911" type="curve" smooth="yes"/>
      <point x="1484" y="911"/>
      <point x="1519" y="830"/>
      <point x="1519" y="642" type="curve" smooth="yes"/>
      <point x="1519" y="0" type="line"/>
      <point x="1813" y="0" type="line"/>
      <point x="1813" y="701" type="line" smooth="yes"/>
      <point x="1813" y="976"/>
      <point x="1703" y="1128"/>
      <point x="1444" y="1128" type="curve" smooth="yes"/>
      <point x="1290" y="1128"/>
      <point x="1162" y="1064"/>
      <point x="1083" y="957" type="curve"/>
      <point x="1047" y="1031"/>
      <point x="952" y="1128"/>
      <point x="766" y="1128" type="curve" smooth="yes"/>
      <point x="536" y="1128"/>
      <point x="450" y="1026"/>
      <point x="398" y="965" type="curve"/>
      <point x="365" y="1100" type="line"/>
      <point x="129" y="1100" type="line"/>
    </contour>
  </outline>
</glyph>
<glyph name="q" format="1">
  <advance width="1275"/>
  <unicode hex="0071"/>
  <outline>
    <contour>
      <point x="850" y="-451" type="line"/>
      <point x="1145" y="-436" type="line"/>
      <point x="1145" y="1100" type="line"/>
      <point x="888" y="1100" type="line"/>
      <point x="864" y="965" type="line"/>
      <point x="823" y="1035"/>
      <point x="726" y="1128"/>
      <point x="545" y="1128" type="curve" smooth="yes"/>
      <point x="244" y="1128"/>
      <point x="77" y="889"/>
      <point x="77" y="560" type="curve" smooth="yes"/>
      <point x="77" y="214"/>
      <point x="273" y="-21"/>
      <point x="556" y="-21" type="curve" smooth="yes"/>
      <point x="767" y="-21"/>
      <point x="836" y="108"/>
      <point x="857" y="147" type="curve"/>
      <point x="852" y="93"/>
      <point x="850" y="46"/>
      <point x="850" y="7" type="curve" smooth="yes"/>
    </contour>
    <contour>
      <point x="616" y="195" type="curve" smooth="yes"/>
      <point x="474" y="195"/>
      <point x="368" y="300"/>
      <point x="368" y="554" type="curve" smooth="yes"/>
      <point x="368" y="816"/>
      <point x="478" y="909"/>
      <point x="613" y="909" type="curve" smooth="yes"/>
      <point x="767" y="909"/>
      <point x="863" y="812"/>
      <point x="863" y="537" type="curve"/>
      <point x="860" y="282"/>
      <point x="761" y="195"/>
    </contour>
  </outline>
</glyph>
<glyph name="t" format="1">
  <advance width="820"/>
  <unicode hex="0074"/>
  <outline>
    <contour>
      <point x="596" y="-13" type="curve" smooth="yes"/>
      <point x="690" y="-13"/>
      <point x="776" y="9"/>
      <point x="776" y="9" type="curve"/>
      <point x="769" y="215" type="line"/>
      <point x="769" y="215"/>
      <point x="703" y="207"/>
      <point x="653" y="207" type="curve" smooth="yes"/>
      <point x="515" y="207"/>
      <point x="484" y="281"/>
      <point x="484" y="440" type="curve" smooth="yes"/>
      <point x="484" y="929" type="line"/>
      <point x="746" y="929" type="line"/>
      <point x="746" y="1100" type="line"/>
      <point x="484" y="1100" type="line"/>
      <point x="484" y="1413" type="line"/>
      <point x="307" y="1413" type="line"/>
      <point x="215" y="1100" type="line"/>
      <point x="15" y="1082" type="line"/>
      <point x="5" y="929" type="line"/>
      <point x="190" y="929" type="line"/>
      <point x="190" y="456" type="line" smooth="yes"/>
      <point x="190" y="145"/>
      <point x="267" y="-13"/>
    </contour>
    <contour>
      <point x="410" y="549" type="move"/>
    </contour>
    <contour>
      <point x="410" y="0" type="move"/>
    </contour>
    <contour>
      <point x="410" y="549" type="move"/>
    </contour>
    <contour>
      <point x="410" y="0" type="move"/>
    </contour>
    <contour>
      <point x="410" y="549" type="move" name="center"/>
    </contour>
    <contour>
      <point x="410" y="0" type="move" name="bottom"/>
    </contour>
  </outline>
</glyph>
<glyph name="u" format="1">
  <advance width="1179"/>
  <unicode hex="0075"/>
  <outline>
    <contour>
      <point x="589" y="-20" type="curve" smooth="yes"/>
      <point x="875" y="-20"/>
      <point x="1075" y="127"/>
      <point x="1075" y="411" type="curve" smooth="yes"/>
      <point x="1075" y="1100" type="line"/>
      <point x="782" y="1100" type="line"/>
      <point x="782" y="425" type="line" smooth="yes"/>
      <point x="782" y="269"/>
      <point x="734" y="198"/>
      <point x="592" y="198" type="curve" smooth="yes"/>
      <point x="449" y="198"/>
      <point x="399" y="269"/>
      <point x="399" y="425" type="curve" smooth="yes"/>
      <point x="399" y="1100" type="line"/>
      <point x="104" y="1100" type="line"/>
      <point x="104" y="411" type="line" smooth="yes"/>
      <point x="104" y="124"/>
      <point x="304" y="-20"/>
    </contour>
    <contour>
      <point x="590" y="1098" type="move"/>
    </contour>
    <contour>
      <point x="1055" y="10" type="move"/>
    </contour>
    <contour>
      <point x="590" y="1098" type="move"/>
    </contour>
    <contour>
      <point x="1055" y="10" type="move"/>
    </contour>
    <contour>
      <point x="590" y="1098" type="move" name="top"/>
    </contour>
    <contour>
      <point x="1055" y="10" type="move" name="ogonek"/>
    </contour>
  </outline>
</glyph>
<glyph name="x" format="1">
  <advance width="1191"/>
  <unicode hex="0078"/>
  <outline>
    <contour>
      <point x="18" y="0" type="line"/>
      <point x="348" y="0" type="line"/>
      <point x="598" y="385" type="line"/>
      <point x="836" y="0" type="line"/>
      <point x="1174" y="0" type="line"/>
      <point x="790" y="566" type="line"/>
      <point x="1160" y="1100" type="line"/>
      <point x="834" y="1100" type="line"/>
      <point x="598" y="740" type="line"/>
      <point x="370" y="1100" type="line"/>
      <point x="38" y="1100" type="line"/>
      <point x="405" y="564" type="line"/>
    </contour>
  </outline>
</glyph>
<glyph name="copyright" format="1">
  <advance width="1710"/>
  <unicode hex="00A9"/>
  <outline>
    <contour>
      <point x="835" y="249" type="curve" smooth="yes"/>
      <point x="956" y="249"/>
      <point x="1055" y="275"/>
      <point x="1138" y="330" type="curve"/>
      <point x="1092" y="434" type="line"/>
      <point x="1013" y="390"/>
      <point x="922" y="369"/>
      <point x="849" y="369" type="curve" smooth="yes"/>
      <point x="661" y="369"/>
      <point x="526" y="507"/>
      <point x="526" y="727" type="curve" smooth="yes"/>
      <point x="526" y="956"/>
      <point x="660" y="1096"/>
      <point x="849" y="1096" type="curve" smooth="yes"/>
      <point x="922" y="1096"/>
      <point x="1013" y="1075"/>
      <point x="1092" y="1031" type="curve"/>
      <point x="1138" y="1137" type="line"/>
      <point x="1055" y="1192"/>
      <point x="952" y="1217"/>
      <point x="831" y="1217" type="curve" smooth="yes"/>
      <point x="563" y="1217"/>
      <point x="378" y="998"/>
      <point x="378" y="729" type="curve" smooth="yes"/>
      <point x="378" y="450"/>
      <point x="573" y="249"/>
    </contour>
    <contour>
      <point x="855" y="82" type="curve" smooth="yes"/>
      <point x="488" y="82"/>
      <point x="196" y="371"/>
      <point x="196" y="728" type="curve" smooth="yes"/>
      <point x="196" y="1085"/>
      <point x="488" y="1374"/>
      <point x="855" y="1374" type="curve" smooth="yes"/>
      <point x="1221" y="1374"/>
      <point x="1514" y="1085"/>
      <point x="1514" y="728" type="curve" smooth="yes"/>
      <point x="1514" y="371"/>
      <point x="1221" y="82"/>
    </contour>
    <contour>
      <point x="855" y="-21" type="curve" smooth="yes"/>
      <point x="1281" y="-21"/>
      <point x="1631" y="310"/>
      <point x="1631" y="728" type="curve" smooth="yes"/>
      <point x="1631" y="1145"/>
      <point x="1281" y="1478"/>
      <point x="855" y="1478" type="curve" smooth="yes"/>
      <point x="426" y="1478"/>
      <point x="79" y="1145"/>
      <point x="79" y="728" type="curve" smooth="yes"/>
      <point x="79" y="310"/>
      <point x="426" y="-21"/>
    </contour>
  </outline>
</glyph>
<glyph name="uni00B2" format="1">
  <advance width="858"/>
  <unicode hex="00B2"/>
  <outline>
    <contour>
      <point x="150" y="548" type="line"/>
      <point x="709" y="548" type="line"/>
      <point x="730" y="694" type="line"/>
      <point x="415" y="694" type="line"/>
      <point x="599" y="841"/>
      <point x="727" y="924"/>
      <point x="727" y="1116" type="curve" smooth="yes"/>
      <point x="727" y="1293"/>
      <point x="586" y="1401"/>
      <point x="433" y="1401" type="curve" smooth="yes"/>
      <point x="289.521" y="1401"/>
      <point x="208.898" y="1339.9"/>
      <point x="132" y="1263" type="curve"/>
      <point x="196" y="1131" type="line"/>
      <point x="243" y="1190"/>
      <point x="332" y="1236"/>
      <point x="405" y="1236" type="curve" smooth="yes"/>
      <point x="470" y="1236"/>
      <point x="546" y="1193"/>
      <point x="546" y="1111" type="curve" smooth="yes"/>
      <point x="546" y="995.065"/>
      <point x="343.372" y="794.686"/>
      <point x="150" y="698" type="curve"/>
    </contour>
  </outline>
</glyph>
<glyph name="acute" format="1">
  <advance width="612"/>
  <unicode hex="00B4"/>
  <outline>
    <contour>
      <point x="212" y="1176" type="line"/>
      <point x="381" y="1176" type="line"/>
      <point x="692" y="1558" type="line"/>
      <point x="378" y="1558" type="line"/>
    </contour>
    <contour>
      <point x="452" y="1098" type="move"/>
    </contour>
    <contour>
      <point x="452" y="1098" type="move"/>
    </contour>
    <contour>
      <point x="452" y="1098" type="move" name="_top"/>
    </contour>
  </outline>
</glyph>
<glyph name="onehalf" format="1">
  <advance width="1876"/>
  <unicode hex="00BD"/>
  <outline>
    <contour>
      <point x="122" y="584" type="line"/>
      <point x="634" y="584" type="line"/>
      <point x="634" y="729" type="line"/>
      <point x="488" y="729" type="line"/>
      <point x="488" y="1466" type="line"/>
      <point x="294" y="1466" type="line"/>
      <point x="101" y="1356" type="line"/>
      <point x="101" y="1193" type="line"/>
      <point x="272" y="1292" type="line"/>
      <point x="272" y="729" type="line"/>
      <point x="122" y="729" type="line"/>
    </contour>
    <contour>
      <point x="1203" y="-29" type="line"/>
      <point x="1762" y="-29" type="line"/>
      <point x="1783" y="117" type="line"/>
      <point x="1468" y="117" type="line"/>
      <point x="1652" y="264"/>
      <point x="1780" y="346"/>
      <point x="1780" y="538" type="curve" smooth="yes"/>
      <point x="1780" y="715"/>
      <point x="1639" y="824"/>
      <point x="1486" y="824" type="curve" smooth="yes"/>
      <point x="1354" y="824"/>
      <point x="1250" y="787"/>
      <point x="1187" y="705" type="curve"/>
      <point x="1249" y="571" type="line"/>
      <point x="1296" y="630"/>
      <point x="1385" y="659"/>
      <point x="1458" y="659" type="curve" smooth="yes"/>
      <point x="1523" y="659"/>
      <point x="1599" y="616"/>
      <point x="1599" y="534" type="curve" smooth="yes"/>
      <point x="1599" y="384"/>
      <point x="1388" y="265"/>
      <point x="1205" y="122" type="curve"/>
    </contour>
    <contour>
      <point x="331" y="0" type="line"/>
      <point x="553" y="0" type="line"/>
      <point x="1605" y="1446" type="line"/>
      <point x="1386" y="1446" type="line"/>
    </contour>
  </outline>
</glyph>
<glyph name="tilde" format="1">
  <advance width="753"/>
  <unicode hex="02DC"/>
  <outline>
    <contour>
      <point x="23" y="1209" type="curve"/>
      <point x="179" y="1209" type="line"/>
      <point x="179" y="1272"/>
      <point x="194" y="1297"/>
      <point x="228" y="1297" type="curve" smooth="yes"/>
      <point x="320" y="1297"/>
      <point x="444" y="1209"/>
      <point x="559" y="1209" type="curve" smooth="yes"/>
      <point x="731" y="1209"/>
      <point x="731" y="1374"/>
      <point x="731" y="1455" type="curve"/>
      <point x="572" y="1455" type="line"/>
      <point x="572" y="1399"/>
      <point x="556" y="1374"/>
      <point x="525" y="1374" type="curve" smooth="yes"/>
      <point x="469" y="1374"/>
      <point x="331" y="1455"/>
      <point x="195" y="1455" type="curve" smooth="yes"/>
      <point x="23" y="1455"/>
      <point x="23" y="1297"/>
    </contour>
    <contour>
      <point x="377" y="1098" type="move"/>
    </contour>
    <contour>
      <point x="377" y="1098" type="move"/>
    </contour>
    <contour>
      <point x="377" y="1098" type="move" name="_top"/>
    </contour>
  </outline>
</glyph>
<glyph name="uni0307" format="1">
  <advance width="549"/>
  <unicode hex="0307"/>
  <outline>
    <contour>
      <point x="169" y="1196" type="line"/>
      <point x="381" y="1196" type="line"/>
      <point x="381" y="1419" type="line"/>
      <point x="169" y="1419" type="line"/>
    </contour>
    <contour>
      <point x="275" y="1098" type="move"/>
    </contour>
    <contour>
      <point x="275" y="1098" type="move"/>
    </contour>
    <contour>
      <point x="275" y="1098" type="move" name="_top"/>
    </contour>
  </outline>
</glyph>
<glyph name="Euro" format="1">
  <advance width="1210"/>
  <unicode hex="20AC"/>
  <outline>
    <contour>
      <point x="770" y="-19" type="curve" smooth="yes"/>
      <point x="918" y="-19"/>
      <point x="1025" y="25"/>
      <point x="1121" y="91" type="curve"/>
      <point x="1122" y="310" type="line"/>
      <point x="1021" y="227"/>
      <point x="907" y="184"/>
      <point x="802" y="184" type="curve" smooth="yes"/>
      <point x="639" y="184"/>
      <point x="497" y="285"/>
      <point x="455" y="493" type="curve"/>
      <point x="970" y="493" type="line"/>
      <point x="995" y="661" type="line"/>
      <point x="430" y="661" type="line"/>
      <point x="432" y="800" type="line"/>
      <point x="1002" y="800" type="line"/>
      <point x="1031" y="958" type="line"/>
      <point x="460" y="958" type="line"/>
      <point x="480" y="1154"/>
      <point x="640" y="1278"/>
      <point x="804" y="1278" type="curve" smooth="yes"/>
      <point x="906" y="1278"/>
      <point x="1011" y="1229"/>
      <point x="1083" y="1120" type="curve"/>
      <point x="1145" y="1320" type="line"/>
      <point x="1059" y="1410"/>
      <point x="941" y="1458"/>
      <point x="801" y="1458" type="curve" smooth="yes"/>
      <point x="460" y="1458"/>
      <point x="279" y="1227"/>
      <point x="219" y="957" type="curve"/>
      <point x="99" y="957" type="line"/>
      <point x="69" y="799" type="line"/>
      <point x="194" y="799" type="line"/>
      <point x="192.5" y="730" type="line"/>
      <point x="191" y="661" type="line"/>
      <point x="98" y="661" type="line"/>
      <point x="72" y="493" type="line"/>
      <point x="214" y="493" type="line"/>
      <point x="260" y="215"/>
      <point x="418" y="-19"/>
    </contour>
  </outline>
</glyph>
